<svg xmlns="http://www.w3.org/2000/svg" viewBox="0 0 88 32" role="img" aria-hidden="true">
  <path fill="#000" d="M21.7 16.4c0-2.5 1.2-4.7 3.1-6-.9-1.3-2.4-2.1-4-2.2-1.7-.2-3.4 1-4.3 1-1 0-2.5-1-4.1-1-2.1.1-4 1.2-5.1 3.2-2.2 3.8-.6 9.4 1.6 12.5 1 1.5 2.3 3.2 4 3.1 1.6-.1 2.2-1 4.1-1s2.5 1 4.2 1c1.7 0 2.8-1.5 3.9-3.1 1.2-1.8 1.7-3.5 1.7-3.6 0 0-3.4-1.3-3.4-5.2zM18.3 8.3c.9-1.1 1.5-2.6 1.3-4.1-1.3.1-2.8.9-3.7 2-.8 1-1.5 2.7-1.3 4.2 1.4.1 2.8-.8 3.7-2.1z"/>
  <text x="30" y="22" font-family="-apple-system,BlinkMacSystemFont,'Segoe UI',Roboto,sans-serif" font-size="17" font-weight="600" fill="#000">Pay</text>
</svg>
